# xmcd
#
# Track frame offsets:
#	182
#	18382
#	39610
#	60712
#	79032
#	100945
#	119757
#
# Disc length: 1937 seconds
#
# Revision: 1
# Processed by: cddbd v1.5.2PL0 Copyright (c) Steve Scherf et al.
# Submitted via: audiograbber 1.83.01
#
DISCID=58078f07
DTITLE=Wolfgang Bahro and Anne Brendler - Close Your Eyes (Maxi-Cd)
DYEAR=1996
DGENRE=
TTITLE0=Close Your Eyes (Radio Version)
TTITLE1=Close Your Eyes (Long Version)
TTITLE2=Close Your Eyes (Karaoke Version)
TTITLE3=Close Your Eyes (off beat city mix I)
TTITLE4=Close Your Eyes (off beat city mix II)
TTITLE5=Close Your Eyes (off beat club mix I)
TTITLE6=Close Your Eyes (off beat club mix II)
EXTD=
EXTT0=
EXTT1=
EXTT2=
EXTT3=
EXTT4=
EXTT5=
EXTT6=
PLAYORDER=
